<svg viewBox="0 0 510 10" version="1.1" xmlns="http://www.w3.org/2000/svg" xmlns:xlink="http://www.w3.org/1999/xlink"><g stroke="none" stroke-width="1" fill="none" fill-rule="evenodd"><g transform="translate(-503.000000, -274.000000)" fill="#00FCFF" fill-rule="nonzero"><g transform="translate(503.000000, 274.000000)"><g><path d="M0.250409165,0.0952380952 L510,0.0952380952 L490.009002,4.14285714 L126.832242,5.66666667 L0.250409165,0.0952380952 Z M505.492635,2.66666667 C505.492635,2.71428571 505.4509,2.76190476 505.409165,2.76190476 C505.200491,2.66666667 505.117021,3 504.908347,3 C504.783142,3 504.741408,3.04761905 504.741408,3.19047619 C504.741408,3.38095238 504.783142,3.42857143 504.950082,3.42857143 C505.075286,3.42857143 505.117021,3.47619048 505.117021,3.61904762 C505.117021,3.76190476 505.075286,3.80952381 504.991817,3.85714286 C504.866612,3.85714286 504.699673,3.85714286 504.741408,4.0952381 C504.783142,4.38095238 504.616203,4.57142857 504.449264,4.71428571 C504.198854,4.71428571 503.948445,4.71428571 503.698036,4.71428571 C503.572831,4.85714286 503.447627,5 503.280687,5.14285714 C503.155483,5 503.030278,4.76190476 502.821604,5.04761905 C502.738134,5.19047619 502.61293,5.14285714 502.487725,5.14285714 C502.237316,5.19047619 502.279051,5.19047619 502.237316,5.47619048 C502.237316,5.57142857 502.237316,5.61904762 502.237316,5.71428571 C502.112111,5.80952381 501.945172,5.85714286 501.861702,5.95238095 C501.736498,6.04761905 501.611293,6.04761905 501.527823,6.04761905 C501.277414,6.04761905 501.193944,6.38095238 501.027005,6.47619048 C500.9018,6.47619048 500.776596,6.47619048 500.651391,6.47619048 C500.484452,6.95238095 500.275777,7.38095238 499.60802,7.33333333 C499.52455,7.23809524 499.399345,7 499.232406,6.80952381 C499.107201,6.61904762 498.856792,6.61904762 498.481178,6.66666667 C498.314239,6.66666667 498.1473,6.66666667 498.022095,6.66666667 C497.89689,6.71428571 497.813421,6.80952381 497.729951,6.85714286 C497.646481,6.9047619 497.521277,6.9047619 497.437807,6.85714286 C497.396072,6.80952381 497.354337,6.71428571 497.312602,6.61904762 C497.187398,6.33333333 497.020458,6.19047619 496.728314,6.19047619 C496.644845,6.19047619 496.51964,6.19047619 496.43617,6.19047619 C496.310966,6.33333333 496.227496,6.42857143 496.102291,6.57142857 C495.935352,6.33333333 495.684943,6.38095238 495.434534,6.38095238 C495.184124,6.38095238 494.933715,6.38095238 494.683306,6.38095238 C494.641571,6.52380952 494.599836,6.71428571 494.516367,6.76190476 C494.432897,6.80952381 494.265957,6.80952381 494.099018,6.80952381 C494.015548,6.66666667 493.890344,6.47619048 493.806874,6.38095238 C493.347791,6.38095238 492.972177,6.38095238 492.554828,6.38095238 C492.513093,6.52380952 492.513093,6.66666667 492.429624,6.76190476 C492.262684,6.85714286 492.095745,6.9047619 491.928805,6.71428571 C491.97054,6.61904762 492.05401,6.57142857 492.095745,6.47619048 C491.636661,6.33333333 491.636661,6.33333333 490.885434,6.57142857 C490.843699,6.57142857 490.760229,6.47619048 490.676759,6.38095238 C490.342881,6.38095238 490.009002,6.38095238 489.633388,6.38095238 C489.424714,6.38095238 489.299509,6.66666667 489.0491,6.61904762 C488.88216,6.57142857 488.673486,6.61904762 488.464812,6.61904762 C488.256137,6.61904762 488.005728,6.61904762 487.797054,6.61904762 C487.671849,6.47619048 487.58838,6.28571429 487.42144,6.42857143 C487.296236,6.52380952 487.171031,6.61904762 487.004092,6.61904762 C486.419804,6.61904762 485.793781,6.61904762 485.209493,6.61904762 C485.042553,6.61904762 484.917349,6.57142857 484.792144,6.42857143 C484.750409,6.38095238 484.625205,6.38095238 484.541735,6.38095238 C484.333061,6.38095238 484.207856,6.66666667 483.957447,6.61904762 C483.748773,6.57142857 483.498363,6.57142857 483.289689,6.61904762 C483.206219,6.61904762 483.164484,6.76190476 483.03928,6.85714286 C482.997545,6.71428571 482.95581,6.61904762 482.914075,6.47619048 C482.87234,6.47619048 482.788871,6.42857143 482.747136,6.42857143 C482.288052,6.42857143 481.870704,6.42857143 481.41162,6.42857143 C481.244681,6.42857143 481.161211,6.71428571 480.910802,6.66666667 C480.743863,6.61904762 480.535188,6.66666667 480.326514,6.66666667 C480.159574,6.66666667 479.9509,6.66666667 479.783961,6.66666667 C479.533552,7 479.199673,7.19047619 478.824059,7.33333333 C478.698854,7.04761905 478.57365,6.76190476 478.448445,6.47619048 C478.323241,6.47619048 478.198036,6.47619048 478.031097,6.47619048 C478.031097,6.57142857 477.989362,6.66666667 477.989362,6.76190476 C477.947627,6.95238095 477.780687,6.9047619 477.697218,6.9047619 C477.572013,6.9047619 477.446809,6.9047619 477.446809,6.71428571 C477.446809,6.52380952 477.363339,6.47619048 477.196399,6.47619048 C477.02946,6.52380952 477.02946,6.66666667 477.071195,6.80952381 C477.071195,6.85714286 477.071195,6.9047619 477.071195,6.9047619 C477.071195,6.95238095 477.071195,6.95238095 477.071195,7 C476.987725,7.0952381 476.904255,7.19047619 476.779051,7.33333333 C476.570376,7.04761905 476.194763,7.23809524 475.986088,6.9047619 C475.652209,6.9047619 475.360065,6.9047619 475.067921,6.9047619 C474.984452,6.80952381 474.859247,6.66666667 474.775777,6.57142857 C474.817512,6.47619048 474.942717,6.42857143 474.942717,6.33333333 C474.942717,6.23809524 474.942717,6.0952381 474.859247,6.04761905 C474.775777,5.95238095 474.608838,6 474.567103,6.14285714 C474.525368,6.23809524 474.525368,6.33333333 474.525368,6.42857143 C474.358429,6.42857143 474.233224,6.42857143 474.10802,6.42857143 C473.899345,6.28571429 474.066285,6.04761905 473.982815,5.85714286 C473.899345,5.76190476 473.523732,5.76190476 473.481997,5.85714286 C473.440262,5.9047619 473.440262,6 473.440262,6.04761905 C473.565466,6.28571429 473.690671,6.52380952 473.815876,6.76190476 C473.774141,6.80952381 473.690671,6.9047619 473.607201,6.95238095 C473.440262,7.0952381 473.273322,7.0952381 473.231588,6.9047619 C473.231588,6.61904762 473.022913,6.57142857 472.939444,6.38095238 C472.56383,6.38095238 472.188216,6.38095238 471.812602,6.38095238 C471.729133,6.38095238 471.603928,6.38095238 471.562193,6.28571429 C471.353519,6.04761905 471.10311,6.19047619 470.8527,6.19047619 C470.644026,6.57142857 470.310147,6.28571429 470.101473,6.42857143 C469.892799,6.57142857 469.684124,6.66666667 469.47545,6.80952381 C469.433715,6.85714286 469.350245,6.76190476 469.308511,6.76190476 C469.308511,6.71428571 469.350245,6.66666667 469.350245,6.61904762 C469.350245,6.57142857 469.39198,6.57142857 469.433715,6.52380952 C469.433715,6.52380952 469.433715,6.47619048 469.433715,6.42857143 C469.266776,6.23809524 469.099836,6.04761905 469.016367,5.76190476 C468.974632,5.76190476 468.891162,5.80952381 468.891162,5.80952381 C468.891162,5.95238095 468.891162,6.0952381 468.724223,6.14285714 C468.473813,6.23809524 468.223404,6.38095238 467.972995,6.52380952 C467.93126,6.42857143 467.889525,6.28571429 467.806056,6.14285714 C467.680851,6.19047619 467.555646,6.23809524 467.472177,6.33333333 C467.263502,6.47619048 467.054828,5.95238095 466.846154,6.28571429 C466.63748,6.28571429 466.428805,6.33333333 466.178396,6.33333333 C466.094926,6.33333333 466.011457,6.28571429 465.927987,6.23809524 C465.719313,6.0952381 465.552373,6.0952381 465.343699,6.28571429 C465.176759,6.47619048 464.968085,6.42857143 464.759411,6.23809524 C464.634206,6.0952381 464.592471,6.0952381 464.425532,6.23809524 C464.300327,6.33333333 464.216858,6.33333333 464.091653,6.38095238 C463.924714,6.42857143 463.841244,6.19047619 463.716039,6.19047619 C463.590835,6.42857143 463.38216,6.38095238 463.215221,6.38095238 C463.048282,6.38095238 462.881342,6.38095238 462.756137,6.38095238 C462.505728,6.38095238 462.255319,6.47619048 462.08838,6.19047619 C462.00491,6.23809524 461.963175,6.33333333 461.879705,6.38095238 C461.671031,6.38095238 461.462357,6.38095238 461.211948,6.38095238 C461.128478,6.38095238 461.045008,6.28571429 461.003273,6.23809524 C460.961538,6.19047619 460.919804,6.14285714 460.878069,6.28571429 C460.878069,6.33333333 460.836334,6.38095238 460.878069,6.38095238 C460.919804,6.52380952 460.961538,6.61904762 461.045008,6.76190476 C460.711129,6.9047619 460.62766,6.95238095 460.502455,6.76190476 C460.335516,6.52380952 460.085106,6.47619048 459.918167,6.28571429 C459.834697,6.19047619 459.709493,6.19047619 459.667758,6.23809524 C459.375614,6.66666667 458.958265,6.38095238 458.582651,6.42857143 C457.998363,6 457.37234,6.33333333 456.746318,6.19047619 C456.579378,5.76190476 456.579378,5.76190476 456.287234,5.9047619 C456.328969,6 456.412439,6.04761905 456.454173,6.14285714 C456.036825,6.33333333 456.036825,6.33333333 456.245499,6.80952381 C456.203764,6.80952381 456.203764,6.85714286 456.162029,6.85714286 C455.786416,6.85714286 455.410802,6.85714286 455.035188,6.85714286 C454.868249,6.66666667 455.118658,6.61904762 455.118658,6.52380952 C455.118658,6.47619048 455.160393,6.38095238 455.118658,6.33333333 C455.076923,6.19047619 454.993453,6.23809524 454.909984,6.33333333 C454.826514,6.38095238 454.743044,6.42857143 454.659574,6.42857143 C454.4509,6.42857143 454.200491,6.38095238 454.075286,6.61904762 C453.908347,6.61904762 453.741408,6.71428571 453.616203,6.57142857 C453.490998,6.38095238 453.324059,6.42857143 453.198854,6.42857143 C453.07365,6.42857143 453.031915,6.47619048 452.99018,6.61904762 C452.864975,6.95238095 452.864975,6.95238095 452.614566,6.80952381 C452.322422,6.61904762 452.322422,6.61904762 452.030278,6.80952381 C451.905074,6.9047619 451.821604,6.9047619 451.696399,6.9047619 C451.571195,6.9047619 451.44599,6.85714286 451.44599,6.66666667 C451.44599,6.57142857 451.44599,6.23809524 451.44599,6.0952381 C451.44599,6 451.404255,5.85714286 451.36252,5.85714286 C451.153846,5.85714286 450.945172,5.80952381 450.778232,5.61904762 C450.694763,5.57142857 450.527823,5.61904762 450.444354,5.61904762 C450.319149,5.76190476 450.235679,5.85714286 450.152209,5.95238095 C450.402619,6.0952381 450.653028,6.19047619 450.903437,6.33333333 C450.945172,6.57142857 450.986907,6.85714286 450.861702,7.14285714 C450.778232,6.95238095 450.736498,6.80952381 450.694763,6.71428571 C450.569558,6.76190476 450.486088,6.9047619 450.360884,6.9047619 C449.98527,6.9047619 449.609656,6.9047619 449.234043,6.9047619 C449.150573,6.9047619 449.025368,7.04761905 448.941899,7.04761905 C448.858429,7.04761905 448.816694,6.9047619 448.733224,6.9047619 C448.482815,6.9047619 448.482815,6.76190476 448.52455,6.57142857 C448.52455,6.52380952 448.52455,6.42857143 448.52455,6.33333333 C448.44108,6.33333333 448.35761,6.28571429 448.274141,6.28571429 C447.940262,6.28571429 447.898527,6.38095238 448.065466,6.71428571 C448.107201,6.80952381 448.148936,6.85714286 448.065466,6.95238095 C447.981997,7 447.940262,7.0952381 447.856792,7.19047619 C447.815057,7.04761905 447.773322,6.9047619 447.731588,6.80952381 C447.689853,6.80952381 447.689853,6.80952381 447.648118,6.80952381 C447.481178,7 447.272504,7.23809524 447.105565,7.42857143 C447.06383,7.33333333 447.06383,7.23809524 447.022095,7.14285714 C446.98036,7 446.813421,6.9047619 446.729951,7 C446.563011,7.23809524 446.396072,7.28571429 446.187398,7.04761905 C446.145663,7 446.062193,7 446.020458,7 C445.43617,7 444.810147,7 444.225859,7 C444.184124,7.0952381 444.184124,7.14285714 444.14239,7.23809524 C444.100655,7.33333333 444.100655,7.38095238 444.05892,7.42857143 C443.766776,7.52380952 443.516367,7.42857143 443.224223,7.47619048 C443.182488,7.19047619 443.057283,6.95238095 442.890344,6.80952381 C442.765139,6.71428571 442.806874,6.66666667 442.890344,6.57142857 C443.015548,6.47619048 442.932079,6.38095238 442.848609,6.38095238 C442.556465,6.28571429 442.389525,6.47619048 442.222586,6.71428571 C442.347791,6.76190476 442.472995,6.85714286 442.5982,6.9047619 C442.389525,7.14285714 442.055646,6.85714286 441.930442,7.23809524 C441.930442,7.23809524 441.763502,7.28571429 441.763502,7.23809524 C441.471358,6.85714286 441.13748,7.0952381 440.803601,7 C440.636661,7.38095238 440.553191,7.76190476 440.052373,7.61904762 C439.927169,7.47619048 439.801964,7.28571429 439.635025,7.14285714 C439.468085,6.95238095 439.468085,6.95238095 439.175941,7.14285714 C439.092471,7.19047619 438.967267,7.23809524 438.925532,7.19047619 C438.800327,7.0952381 438.716858,6.95238095 438.591653,6.80952381 C438.508183,6.71428571 438.382979,6.71428571 438.299509,6.61904762 C438.257774,6.57142857 438.299509,6.47619048 438.299509,6.42857143 C438.257774,6.38095238 438.216039,6.33333333 438.13257,6.33333333 C437.715221,6.33333333 437.297872,6.33333333 436.880524,6.33333333 C436.838789,6.33333333 436.838789,6.38095238 436.797054,6.38095238 C436.755319,6.52380952 436.713584,6.61904762 436.671849,6.76190476 C436.546645,6.76190476 436.379705,6.76190476 436.296236,6.76190476 C436.171031,6.9047619 436.004092,7.04761905 435.878887,7.19047619 C435.711948,7.14285714 435.545008,7.23809524 435.419804,7.0952381 C435.378069,7.04761905 435.336334,7 435.294599,6.95238095 C434.96072,6.85714286 434.668576,6.66666667 434.376432,6.28571429 C434.292962,6.28571429 434.209493,6.28571429 434.126023,6.28571429 C433.917349,6.28571429 433.708674,6.28571429 433.666939,6.61904762 C433.625205,6.85714286 433.58347,6.9047619 433.666939,7 C433.833879,7.23809524 434.167758,7.0952381 434.209493,7.52380952 C434.167758,7.61904762 434.042553,7.61904762 433.917349,7.52380952 C433.833879,7.42857143 433.750409,7.33333333 433.58347,7.38095238 C433.333061,7.42857143 433.166121,7.0952381 432.915712,7.14285714 C432.707038,7.19047619 432.456628,7.14285714 432.247954,7.14285714 C432.164484,7.0952381 432.12275,7 432.03928,6.95238095 C431.95581,7.0952381 431.830606,7.23809524 431.705401,7 C431.705401,7 431.621931,7.04761905 431.580196,7.04761905 C431.538462,7.04761905 431.496727,7.0952381 431.454992,7.0952381 C431.454992,7.04761905 431.371522,6.95238095 431.413257,6.9047619 C431.496727,6.71428571 431.621931,6.57142857 431.747136,6.38095238 C431.663666,6.0952381 431.454992,6 431.204583,6.04761905 C430.954173,6.0952381 430.703764,5.95238095 430.453355,6.14285714 C430.57856,6.28571429 430.703764,6.42857143 430.828969,6.61904762 C430.662029,6.85714286 430.620295,6.9047619 430.828969,6.9047619 C430.995908,6.95238095 431.037643,7.04761905 430.995908,7.19047619 C430.995908,7.23809524 430.912439,7.28571429 430.912439,7.33333333 C430.703764,7 430.41162,7.14285714 430.119476,7.14285714 C429.869067,7.0952381 429.618658,7.14285714 429.368249,7.14285714 C429.243044,7 429.326514,6.76190476 429.159574,6.66666667 C428.992635,6.57142857 428.783961,6.47619048 428.742226,6.33333333 C428.658756,6.14285714 428.742226,5.9047619 428.742226,5.71428571 C428.617021,5.52380952 428.491817,5.61904762 428.366612,5.61904762 C428.241408,5.61904762 428.157938,5.66666667 428.157938,5.76190476 C428.157938,5.95238095 428.074468,6.14285714 428.241408,6.23809524 C428.324877,6.33333333 428.283142,6.47619048 428.241408,6.42857143 C427.990998,6.38095238 427.907529,6.76190476 427.657119,6.66666667 C427.364975,6.57142857 427.448445,6.95238095 427.323241,7.0952381 C426.405074,7.0952381 425.445172,7.0952381 424.527005,7.0952381 C424.4018,7.0952381 424.276596,7.04761905 424.193126,7.19047619 C424.109656,7.33333333 424.067921,7.23809524 423.984452,7.14285714 C423.734043,6.9047619 423.734043,6.52380952 423.567103,6.23809524 C423.358429,6.14285714 423.149755,6.19047619 422.94108,6.19047619 C422.85761,6.28571429 422.815876,6.38095238 422.732406,6.42857143 C422.607201,6.52380952 422.356792,6.61904762 422.315057,6.76190476 C422.231588,6.95238095 422.315057,7.19047619 422.315057,7.38095238 C422.315057,7.42857143 422.315057,7.52380952 422.315057,7.57142857 C422.189853,7.66666667 422.022913,7.71428571 421.939444,7.80952381 C421.855974,7.85714286 421.855974,7.9047619 421.814239,7.80952381 C421.772504,7.76190476 421.772504,7.66666667 421.772504,7.61904762 C421.814239,7.52380952 421.897709,7.47619048 421.939444,7.38095238 C422.022913,7.23809524 421.939444,7.04761905 421.855974,7.04761905 C421.730769,7.04761905 421.605565,7.04761905 421.605565,7.23809524 C421.56383,7.47619048 421.39689,7.52380952 421.313421,7.42857143 C421.146481,7.23809524 420.979542,7 420.770867,6.80952381 C420.645663,6.71428571 420.687398,6.57142857 420.687398,6.42857143 C420.603928,5.9047619 420.228314,5.76190476 419.8527,6.0952381 C419.810966,6.14285714 419.769231,6.19047619 419.727496,6.23809524 C419.727496,6.47619048 419.769231,6.71428571 419.727496,6.9047619 C419.685761,7.04761905 419.518822,7.14285714 419.560556,7.38095238 C419.310147,7.52380952 419.393617,7.80952381 419.351882,8.04761905 C419.226678,8.19047619 419.059738,8.0952381 418.892799,8.0952381 C418.767594,8.0952381 418.64239,8.0952381 418.517185,8.0952381 C418.433715,8.19047619 418.350245,8.57142857 418.47545,8.66666667 C418.55892,8.80952381 418.684124,8.9047619 418.809329,9.04761905 C418.64239,9.14285714 418.517185,9.28571429 418.350245,9.33333333 C418.058101,9.47619048 417.682488,9.33333333 417.682488,8.9047619 C417.640753,8.42857143 417.473813,8.28571429 417.0982,8.28571429 C417.01473,8.28571429 416.93126,8.19047619 416.889525,8.14285714 C416.680851,8.04761905 416.555646,8.0952381 416.555646,8.28571429 C416.513912,8.57142857 416.597381,8.85714286 416.513912,9.14285714 C416.346972,9.14285714 416.138298,9.14285714 415.971358,9.14285714 C415.929624,9.14285714 415.846154,9.0952381 415.846154,9.04761905 C415.804419,9 415.804419,8.85714286 415.846154,8.85714286 C415.971358,8.71428571 416.054828,8.61904762 416.221768,8.52380952 C416.472177,8.38095238 416.472177,8.38095238 416.305237,8.0952381 C416.138298,7.80952381 416.180033,7.57142857 416.430442,7.33333333 C416.263502,7.19047619 416.096563,7.04761905 415.804419,6.80952381 C415.887889,6.80952381 415.846154,6.80952381 415.762684,6.80952381 C415.55401,6.80952381 415.345336,6.9047619 415.220131,6.80952381 C415.053191,6.66666667 414.844517,6.61904762 414.677578,6.47619048 C414.510638,6.33333333 414.427169,6.38095238 414.301964,6.57142857 C414.09329,6.85714286 413.92635,7.19047619 413.968085,7.61904762 C413.968085,7.80952381 414.051555,8 413.92635,8.14285714 C413.884615,8.0952381 413.842881,8.0952381 413.801146,8.04761905 C413.550736,7.85714286 413.509002,7.9047619 413.425532,8.19047619 C413.425532,8.23809524 413.383797,8.28571429 413.300327,8.42857143 C413.216858,8.28571429 413.133388,8.19047619 413.049918,8.0952381 C412.966448,8 413.008183,7.80952381 413.133388,7.76190476 C413.175123,7.76190476 413.216858,7.76190476 413.216858,7.76190476 C413.509002,7.61904762 413.634206,7.38095238 413.592471,7 C413.133388,6.85714286 412.799509,6.80952381 412.507365,6.95238095 C412.340426,7.04761905 412.256956,7.19047619 412.256956,6.85714286 C412.256956,6.71428571 411.923077,6.57142857 412.215221,6.38095238 C412.256956,6.38095238 412.256956,6.14285714 412.173486,6.0952381 C412.090016,6 412.048282,5.85714286 412.006547,5.71428571 C411.923077,5.47619048 411.756137,5.57142857 411.630933,5.66666667 C411.714403,5.76190476 411.756137,5.80952381 411.839607,5.9047619 C411.714403,6.04761905 411.547463,6.19047619 411.756137,6.42857143 C411.839607,6.52380952 411.839607,6.61904762 411.756137,6.66666667 C411.672668,6.66666667 411.589198,6.61904762 411.505728,6.57142857 C411.463993,6.52380952 411.505728,6.42857143 411.463993,6.38095238 C411.422259,6.28571429 411.338789,6.19047619 411.255319,6.23809524 C411.213584,6.23809524 411.130115,6.28571429 411.08838,6.33333333 C411.08838,6.47619048 411.046645,6.61904762 410.963175,6.71428571 C410.879705,6.76190476 410.837971,6.85714286 410.754501,6.9047619 C410.587561,6.95238095 410.420622,6.9047619 410.295417,6.9047619 C410.170213,6.95238095 410.086743,7.0952381 410.003273,7.0952381 C409.919804,7.0952381 409.794599,7 409.62766,6.9047619 C409.46072,6.9047619 409.168576,6.9047619 408.918167,6.9047619 C408.834697,7 408.751227,7.0952381 408.626023,7.23809524 C408.626023,7.52380952 408.626023,7.80952381 408.626023,8.14285714 C408.417349,8.23809524 408.250409,8.28571429 408.08347,8.0952381 C408.125205,8 408.208674,7.95238095 408.250409,7.85714286 C408.08347,7.66666667 407.91653,7.47619048 407.791326,7.33333333 C407.582651,7.33333333 407.415712,7.28571429 407.207038,7.33333333 C406.998363,7.42857143 406.914894,7.04761905 406.747954,7.19047619 C406.62275,7.33333333 406.45581,7.28571429 406.330606,7.33333333 C406.121931,7.33333333 405.954992,7.33333333 405.746318,7.33333333 C405.704583,7.33333333 405.621113,7.38095238 405.621113,7.42857143 C405.621113,7.52380952 405.621113,7.66666667 405.662848,7.71428571 C405.746318,7.80952381 405.829787,7.95238095 405.954992,7.95238095 C406.163666,7.95238095 406.205401,8.14285714 406.37234,8.23809524 C406.330606,8.33333333 406.288871,8.42857143 406.205401,8.47619048 C406.080196,8.57142857 405.913257,8.61904762 405.829787,8.71428571 C405.746318,8.80952381 405.788052,8.95238095 405.704583,9.0952381 C405.495908,9.28571429 405.328969,9.52380952 405.162029,9.71428571 C404.744681,9.9047619 404.536007,9.23809524 404.118658,9.42857143 C404.160393,9.33333333 404.243863,9.28571429 404.285597,9.19047619 C404.369067,9.04761905 404.285597,8.85714286 404.160393,8.85714286 C403.993453,8.85714286 403.826514,8.85714286 403.659574,8.66666667 C403.53437,8.52380952 403.325696,8.57142857 403.158756,8.71428571 C403.117021,8.76190476 402.950082,8.85714286 402.908347,8.80952381 C402.699673,8.57142857 402.449264,8.61904762 402.198854,8.61904762 C401.99018,8.61904762 401.948445,8.47619048 402.031915,8.23809524 C402.115385,8.04761905 402.240589,7.80952381 402.365794,7.61904762 C402.157119,7.23809524 401.698036,7.23809524 401.405892,6.95238095 C401.155483,6.71428571 400.863339,7 400.61293,6.85714286 C400.44599,7.04761905 400.279051,7.19047619 400.279051,7.47619048 C400.320786,7.76190476 400.195581,7.66666667 400.028642,7.57142857 C399.861702,7.47619048 399.611293,7.52380952 399.402619,7.47619048 C399.319149,7.42857143 399.235679,7.23809524 399.06874,7.33333333 C398.98527,7.38095238 398.9018,7.52380952 398.860065,7.52380952 C398.734861,7.47619048 398.651391,7.33333333 398.484452,7.33333333 C398.359247,7.33333333 398.400982,7.0952381 398.400982,6.95238095 C398.400982,6.9047619 398.359247,6.80952381 398.359247,6.71428571 C398.108838,6.57142857 397.733224,6.80952381 397.52455,6.47619048 C397.482815,6.42857143 397.35761,6.47619048 397.232406,6.47619048 C397.107201,6.47619048 397.107201,6.57142857 397.065466,6.66666667 C396.981997,6.9047619 396.898527,6.95238095 396.773322,6.85714286 C396.689853,6.80952381 396.648118,6.71428571 396.564648,6.66666667 C396.481178,6.66666667 396.397709,6.71428571 396.355974,6.80952381 C396.314239,6.9047619 396.355974,7 396.355974,7.14285714 C396.355974,7.33333333 396.355974,7.33333333 396.1473,7.19047619 C396.06383,7.14285714 395.98036,7.14285714 395.89689,7.0952381 C395.855155,7.0952381 395.813421,7 395.855155,6.95238095 C395.89689,6.85714286 395.98036,6.76190476 395.98036,6.71428571 C395.98036,6.42857143 396.022095,6.14285714 395.938625,5.85714286 C395.855155,5.85714286 395.729951,5.80952381 395.688216,5.85714286 C395.479542,6.04761905 395.312602,6.23809524 395.145663,6.47619048 C394.895254,6.57142857 394.644845,6.38095238 394.43617,6.61904762 C394.269231,6.80952381 394.018822,6.66666667 393.768412,6.71428571 C393.726678,6.61904762 393.726678,6.52380952 393.684943,6.42857143 C393.643208,6.33333333 393.643208,6.23809524 393.518003,6.33333333 C393.184124,6.57142857 393.14239,6.57142857 392.766776,6.14285714 C392.808511,6.0952381 392.850245,6.04761905 392.89198,6 C392.89198,6 392.933715,5.95238095 392.933715,5.9047619 C392.89198,5.80952381 392.683306,5.76190476 392.850245,5.57142857 C392.89198,5.52380952 392.97545,5.33333333 392.933715,5.28571429 C392.850245,5.14285714 392.725041,5 392.599836,4.9047619 C392.516367,4.85714286 392.432897,4.9047619 392.307692,4.9047619 C392.182488,4.9047619 392.057283,4.95238095 391.973813,4.80952381 C391.806874,4.57142857 391.639935,4.71428571 391.51473,4.9047619 C391.472995,4.95238095 391.43126,5 391.43126,5.04761905 C391.472995,5.14285714 391.556465,5.19047619 391.5982,5.28571429 C391.43126,5.42857143 391.264321,5.38095238 391.139116,5.38095238 C391.013912,5.38095238 390.930442,5.42857143 390.805237,5.52380952 C390.721768,5.57142857 390.554828,5.61904762 390.471358,5.57142857 C390.346154,5.52380952 390.220949,5.42857143 390.05401,5.38095238 C389.928805,5.33333333 389.803601,5.42857143 389.678396,5.23809524 C389.761866,5.19047619 389.845336,5.19047619 389.928805,5.14285714 C390.179214,5.04761905 390.012275,4.85714286 390.13748,4.57142857 C389.928805,4.76190476 389.845336,4.85714286 389.803601,4.9047619 C389.511457,4.61904762 389.511457,4.61904762 389.135843,5 C389.177578,5.0952381 389.261047,5.14285714 389.344517,5.23809524 C389.261047,5.28571429 389.177578,5.33333333 389.094108,5.33333333 C388.843699,5.28571429 388.760229,5.47619048 388.635025,5.61904762 C388.50982,5.76190476 388.59329,5.95238095 388.760229,6 C388.885434,6.04761905 388.927169,6.04761905 388.968903,6.19047619 C388.968903,6.33333333 388.968903,6.47619048 388.760229,6.47619048 C388.760229,6.47619048 388.175941,6.47619048 388.175941,6.47619048 C388.134206,6.47619048 388.134206,6.47619048 388.092471,6.42857143 C387.967267,6.28571429 388.050736,6.0952381 388.050736,5.9047619 C388.050736,5.76190476 388.050736,5.61904762 388.050736,5.47619048 C387.758592,5.23809524 387.424714,5.47619048 387.13257,5.33333333 C387.13257,5.19047619 387.13257,5 387.090835,4.85714286 C386.88216,4.66666667 386.673486,4.80952381 386.464812,4.76190476 C386.339607,4.9047619 386.214403,5.04761905 386.047463,5.19047619 C385.922259,5.19047619 385.797054,5.19047619 385.671849,5.19047619 C385.546645,5.33333333 385.546645,5.57142857 385.713584,5.85714286 C385.838789,6.04761905 385.797054,6.19047619 385.671849,6.33333333 C385.630115,6.38095238 385.58838,6.42857143 385.50491,6.52380952 C385.337971,6.52380952 385.171031,6.52380952 384.962357,6.52380952 C384.878887,6.52380952 384.795417,6.38095238 384.837152,6.28571429 C384.878887,6.14285714 384.962357,6 385.004092,5.80952381 C385.045827,5.66666667 385.004092,5.57142857 385.087561,5.42857143 C385.254501,5.0952381 385.254501,5 384.878887,5 C384.628478,5 384.545008,4.66666667 384.294599,4.76190476 C384.12766,4.80952381 383.918985,4.80952381 383.793781,4.61904762 C383.501637,4.61904762 383.167758,4.57142857 382.875614,4.57142857 C382.792144,4.61904762 382.750409,4.66666667 382.708674,4.71428571 C382.374795,5.19047619 382.166121,5.14285714 381.957447,4.52380952 C381.957447,4.47619048 381.873977,4.42857143 381.873977,4.38095238 C381.832242,4.42857143 381.832242,4.42857143 381.790507,4.47619048 C381.665303,4.9047619 381.665303,4.9047619 381.414894,4.71428571 C381.331424,4.66666667 381.289689,4.61904762 381.206219,4.71428571 C381.164484,4.76190476 381.164484,4.85714286 381.206219,4.9047619 C381.373159,5.0952381 381.498363,5.28571429 381.665303,5.42857143 C381.873977,5.42857143 382.040917,5.42857143 382.249591,5.42857143 C382.458265,5.66666667 382.249591,5.95238095 382.374795,6.23809524 C382.082651,6.23809524 382.040917,5.95238095 381.790507,5.9047619 C381.790507,5.9047619 381.707038,6.14285714 381.540098,6.04761905 C381.373159,6 381.247954,6.0952381 381.12275,6.23809524 C380.997545,5.85714286 380.788871,5.57142857 380.496727,5.38095238 C380.329787,5.47619048 380.121113,5.57142857 379.912439,5.66666667 C379.870704,5.95238095 379.954173,6.33333333 379.870704,6.76190476 C379.703764,6.57142857 379.57856,6.42857143 379.536825,6.28571429 C379.49509,6.04761905 379.369885,5.9047619 379.202946,5.80952381 C378.869067,5.52380952 378.869067,5.52380952 379.077741,5.14285714 C379.202946,4.9047619 379.202946,4.80952381 378.994272,4.76190476 C378.660393,4.61904762 378.326514,4.42857143 378.076105,4.0952381 C377.9509,4.38095238 377.86743,4.76190476 377.491817,4.80952381 C377.450082,4.80952381 377.450082,4.9047619 377.408347,5 C377.366612,5.0952381 377.366612,5.19047619 377.324877,5.19047619 C377.074468,5.19047619 376.824059,5.23809524 376.57365,5.23809524 C376.281506,4.85714286 375.864157,5.14285714 375.530278,5 C375.488543,4.9047619 375.488543,4.80952381 375.446809,4.66666667 C375.405074,4.61904762 375.405074,4.57142857 375.363339,4.57142857 C375.11293,4.57142857 374.86252,4.57142857 374.570376,4.57142857 C374.486907,4.66666667 374.403437,4.76190476 374.319967,4.9047619 C374.445172,5.19047619 374.737316,4.85714286 374.86252,5.14285714 C374.570376,5.38095238 374.695581,5.71428571 374.653846,6.0952381 C374.445172,6.04761905 374.236498,5.85714286 374.027823,5.9047619 C373.902619,5.95238095 373.777414,5.95238095 373.693944,6.04761905 C373.652209,6.0952381 373.48527,6.14285714 373.443535,6.14285714 C373.276596,5.9047619 373.067921,5.9047619 372.859247,5.95238095 C372.734043,5.95238095 372.567103,5.95238095 372.608838,5.76190476 C372.608838,5.66666667 372.692308,5.57142857 372.734043,5.47619048 C372.734043,5.42857143 372.775777,5.42857143 372.817512,5.38095238 C372.692308,5.19047619 372.525368,5.28571429 372.400164,5.28571429 C372.316694,5.28571429 372.233224,5.38095238 372.233224,5.52380952 C372.233224,5.57142857 372.191489,5.71428571 372.149755,5.71428571 C371.690671,5.76190476 371.648936,6.14285714 371.607201,6.52380952 C371.607201,6.57142857 371.565466,6.57142857 371.565466,6.61904762 C371.481997,6.52380952 371.440262,6.42857143 371.356792,6.42857143 C371.273322,6.42857143 371.148118,6.42857143 371.106383,6.52380952 C371.064648,6.61904762 371.106383,6.80952381 370.939444,6.85714286 C370.814239,6.9047619 370.730769,6.76190476 370.605565,6.66666667 C370.522095,6.61904762 370.438625,6.61904762 370.355155,6.57142857 C370.313421,6.52380952 370.313421,6.47619048 370.313421,6.38095238 C370.313421,6.23809524 370.355155,6.19047619 370.48036,6.19047619 C370.605565,6.19047619 370.730769,6.19047619 370.814239,6.19047619 C370.939444,5.9047619 370.897709,5.66666667 370.855974,5.42857143 C370.814239,5.38095238 370.730769,5.38095238 370.689034,5.33333333 C370.689034,5.33333333 370.104746,5.0952381 370.063011,5.0952381 C370.063011,5.0952381 370.063011,5.0952381 370.104746,5.0952381 C370.063011,4.9047619 370.229951,4.9047619 370.271686,4.76190476 C370.063011,4.66666667 370.146481,4.38095238 370.021277,4.23809524 C369.979542,4.19047619 369.896072,4.19047619 369.854337,4.23809524 C369.812602,4.23809524 369.770867,4.33333333 369.729133,4.38095238 C369.729133,4.42857143 369.729133,4.57142857 369.729133,4.57142857 C369.937807,4.66666667 369.812602,5 370.021277,5.0952381 C370.063011,5.33333333 369.854337,5.38095238 369.812602,5.52380952 C369.520458,5.28571429 369.478723,5.28571429 369.270049,5.47619048 C369.186579,5.57142857 369.144845,5.61904762 369.061375,5.71428571 C368.93617,5.85714286 368.810966,5.80952381 368.727496,5.57142857 C368.727496,5.52380952 368.727496,5.47619048 368.727496,5.47619048 C368.644026,5.42857143 368.560556,5.38095238 368.477087,5.33333333 C368.393617,5.33333333 368.310147,5.42857143 368.310147,5.52380952 C368.310147,5.61904762 368.310147,5.76190476 368.310147,5.85714286 C368.310147,5.9047619 368.184943,5.95238095 368.184943,5.9047619 C368.101473,5.80952381 368.018003,5.76190476 367.851064,5.71428571 C367.767594,5.71428571 367.725859,5.52380952 367.684124,5.38095238 C367.64239,5.38095238 367.600655,5.33333333 367.55892,5.33333333 C367.099836,5.33333333 366.599018,5.33333333 366.139935,5.33333333 C366.056465,5.47619048 366.01473,5.71428571 365.93126,5.76190476 C365.806056,5.80952381 365.639116,5.85714286 365.513912,5.71428571 C365.388707,5.52380952 365.096563,5.57142857 364.971358,5.33333333 C364.887889,5.14285714 364.720949,5.14285714 364.55401,5.14285714 C364.47054,5.14285714 364.428805,5.04761905 364.345336,5.04761905 C364.38707,5 364.47054,4.95238095 364.47054,4.9047619 C364.512275,4.76190476 364.512275,4.57142857 364.512275,4.38095238 C364.38707,4.38095238 364.303601,4.33333333 364.220131,4.33333333 C363.969722,4.33333333 363.927987,4.38095238 363.927987,4.61904762 C363.927987,4.71428571 363.927987,4.80952381 363.969722,4.9047619 C364.053191,5.23809524 363.927987,5.57142857 363.677578,5.61904762 C363.552373,5.61904762 363.427169,5.61904762 363.343699,5.71428571 C363.218494,5.9047619 363.051555,5.80952381 362.92635,5.80952381 C362.801146,5.80952381 362.717676,5.57142857 362.509002,5.61904762 C362.383797,5.66666667 362.300327,5.57142857 362.175123,5.47619048 C361.924714,5.33333333 361.131751,5.28571429 360.923077,5.47619048 C360.672668,5.66666667 360.422259,5.57142857 360.213584,5.57142857 C360.046645,5.23809524 359.92144,5.52380952 359.796236,5.57142857 C359.671031,5.61904762 359.545827,5.57142857 359.545827,5.33333333 C359.545827,5.28571429 359.504092,5.19047619 359.462357,5.14285714 C359.378887,5.19047619 359.337152,5.28571429 359.253682,5.33333333 C359.170213,5.33333333 359.086743,5.33333333 358.961538,5.33333333 L358.961538,4.33333333 C359.003273,4.38095238 359.045008,4.42857143 359.086743,4.47619048 C359.170213,4.52380952 359.337152,4.42857143 359.378887,4.28571429 C359.378887,4.14285714 359.378887,4 359.378887,3.80952381 C359.170213,3.80952381 359.086743,3.80952381 359.003273,3.80952381 C359.003273,3.80952381 359.003273,3.80952381 359.003273,3.80952381 L359.003273,0.904761905 L493.306056,0.904761905 C493.306056,0.904761905 493.306056,0.904761905 493.306056,0.952380952 C493.306056,1 493.43126,1 493.51473,1 C493.556465,1 493.681669,1 493.723404,0.952380952 C493.723404,0.952380952 493.723404,0.952380952 493.723404,0.952380952 L499.148936,0.952380952 C499.148936,0.952380952 499.148936,0.952380952 499.148936,0.952380952 C499.148936,0.952380952 499.148936,0.952380952 499.148936,0.952380952 L499.232406,0.952380952 C499.274141,1.04761905 499.315876,1.14285714 499.35761,1.28571429 C499.399345,1.0952381 499.44108,1 499.482815,0.952380952 L501.027005,0.952380952 C501.027005,1 500.98527,1.04761905 501.027005,1.14285714 C501.027005,1.19047619 501.152209,1.23809524 501.152209,1.23809524 C501.402619,1.0952381 501.694763,1 501.986907,0.952380952 L503.864975,0.952380952 C503.864975,1.0952381 503.864975,1.23809524 503.823241,1.38095238 C503.614566,1.52380952 503.364157,1.42857143 503.155483,1.42857143 C502.946809,1.42857143 502.696399,1.42857143 502.487725,1.42857143 C502.36252,1.42857143 502.320786,1.47619048 502.320786,1.61904762 C502.320786,1.76190476 502.36252,1.80952381 502.44599,1.85714286 C502.52946,1.9047619 502.61293,1.9047619 502.696399,1.95238095 C502.61293,2.04761905 502.52946,2.14285714 502.487725,2.23809524 C502.487725,2.33333333 502.52946,2.42857143 502.571195,2.52380952 C502.571195,2.52380952 502.61293,2.52380952 502.654664,2.52380952 C502.905074,2.47619048 503.155483,2.57142857 503.405892,2.47619048 C503.447627,2.38095238 503.447627,2.28571429 503.489362,2.19047619 C503.531097,2.14285714 503.614566,2.0952381 503.656301,2.0952381 C503.90671,2.0952381 504.157119,2.0952381 504.407529,2.0952381 C504.532733,2.0952381 504.616203,1.95238095 504.699673,1.9047619 C505.033552,2.19047619 505.242226,2.66666667 505.701309,2.80952381 C505.492635,2.61904762 505.492635,2.66666667 505.492635,2.66666667 Z M361.5491,4.52380952 C361.5491,4.47619048 361.507365,4.28571429 361.46563,4.28571429 C361.298691,4.23809524 361.090016,4.28571429 360.923077,4.28571429 C360.881342,4.28571429 360.881342,4.33333333 360.839607,4.38095238 C360.839607,4.52380952 360.839607,4.71428571 360.839607,4.9047619 C361.215221,5 361.46563,4.9047619 361.5491,4.52380952 Z M367.266776,4.76190476 C367.266776,4.66666667 367.225041,4.47619048 367.183306,4.52380952 C366.891162,4.57142857 366.807692,4.19047619 366.599018,4.0952381 C366.473813,4.23809524 366.557283,4.57142857 366.223404,4.57142857 C366.139935,4.57142857 366.0982,4.76190476 366.223404,5 C366.473813,5 366.807692,5 367.099836,5 C367.225041,4.95238095 367.266776,4.85714286 367.266776,4.76190476 Z M372.066285,4.42857143 C372.02455,4.38095238 371.982815,4.33333333 371.94108,4.28571429 C371.774141,4.28571429 371.565466,4.28571429 371.398527,4.28571429 C371.356792,4.28571429 371.315057,4.38095238 371.315057,4.42857143 C371.315057,4.47619048 371.315057,4.61904762 371.356792,4.61904762 C371.565466,4.66666667 371.690671,4.85714286 371.899345,4.9047619 C372.02455,4.9047619 372.149755,5 372.233224,4.85714286 C372.316694,4.66666667 372.191489,4.52380952 372.066285,4.42857143 Z M376.615385,4.19047619 C376.531915,4 376.156301,4 376.072831,4.19047619 C376.031097,4.23809524 376.114566,4.38095238 376.156301,4.47619048 C376.156301,4.52380952 376.281506,4.52380952 376.364975,4.52380952 C376.40671,4.52380952 376.531915,4.52380952 376.57365,4.47619048 C376.615385,4.38095238 376.657119,4.23809524 376.615385,4.19047619 Z M377.9509,2.61904762 C377.9509,2.23809524 377.86743,2.04761905 377.617021,1.9047619 C377.575286,1.85714286 377.450082,1.95238095 377.366612,2 C377.575286,2.14285714 377.533552,2.42857143 377.575286,2.66666667 C377.575286,2.71428571 377.742226,2.76190476 377.783961,2.76190476 C377.86743,2.71428571 377.909165,2.61904762 377.9509,2.61904762 Z M398.150573,5.28571429 C398.067103,5.19047619 398.067103,5.19047619 398.025368,5.14285714 C397.733224,4.85714286 397.60802,4.85714286 397.44108,5.19047619 C397.315876,5.38095238 397.274141,5.61904762 397.190671,5.80952381 C397.190671,5.85714286 397.232406,5.95238095 397.274141,6 C397.44108,6.04761905 397.566285,6.0952381 397.733224,6 C397.733224,5.9047619 397.774959,5.85714286 397.774959,5.80952381 C397.691489,5.42857143 397.900164,5.38095238 398.150573,5.28571429 Z M404.243863,4.47619048 C404.243863,4.52380952 404.285597,4.61904762 404.285597,4.66666667 C404.410802,4.76190476 404.577741,4.80952381 404.744681,4.9047619 C404.828151,4.71428571 404.828151,4.52380952 404.702946,4.28571429 C404.619476,4.28571429 404.494272,4.28571429 404.369067,4.28571429 C404.285597,4.28571429 404.202128,4.33333333 404.243863,4.47619048 Z M402.908347,3.71428571 C402.991817,3.80952381 403.075286,3.9047619 403.200491,4.04761905 C403.283961,3.95238095 403.36743,3.85714286 403.409165,3.76190476 C403.4509,3.66666667 403.492635,3.57142857 403.4509,3.47619048 C403.409165,3.42857143 403.325696,3.38095238 403.242226,3.38095238 C403.200491,3.38095238 403.117021,3.38095238 403.075286,3.38095238 C402.950082,3.42857143 402.824877,3.61904762 402.908347,3.71428571 Z M405.328969,6.71428571 C405.287234,6.71428571 405.203764,6.61904762 405.162029,6.66666667 C404.91162,6.80952381 404.702946,7 404.452537,7.0952381 C404.243863,7.14285714 404.243863,7.28571429 404.202128,7.42857143 C404.202128,7.47619048 404.118658,7.52380952 404.035188,7.52380952 C403.909984,7.57142857 403.868249,7.47619048 403.826514,7.38095238 C403.701309,7.04761905 403.659574,7 403.492635,7.14285714 C403.158756,7.38095238 402.866612,7.38095238 402.574468,7.0952381 C402.490998,7.19047619 402.449264,7.23809524 402.365794,7.33333333 C402.240589,7.52380952 402.282324,7.76190476 402.449264,7.71428571 C402.699673,7.66666667 402.824877,7.9047619 403.033552,7.95238095 C403.242226,8 403.492635,7.95238095 403.784779,7.95238095 C403.826514,8 403.909984,8.14285714 403.993453,8.23809524 C404.076923,8.38095238 404.160393,8.52380952 404.285597,8.66666667 C404.536007,8.04761905 404.536007,8.04761905 405.036825,7.95238095 C405.162029,7.9047619 405.245499,7.71428571 405.162029,7.61904762 C404.869885,7.33333333 404.99509,7.14285714 405.203764,6.95238095 C405.245499,6.95238095 405.245499,6.9047619 405.287234,6.85714286 C405.287234,6.80952381 405.328969,6.76190476 405.328969,6.71428571 Z M405.07856,5.80952381 C405.036825,5.80952381 404.99509,5.71428571 404.99509,5.66666667 C404.99509,5.57142857 404.99509,5.42857143 404.99509,5.33333333 C404.99509,5.19047619 404.786416,5.0952381 404.702946,5.19047619 C404.536007,5.42857143 404.327332,5.38095238 404.118658,5.42857143 C404.076923,5.42857143 404.035188,5.52380952 404.035188,5.61904762 C404.035188,5.66666667 404.035188,5.80952381 404.076923,5.80952381 C404.369067,5.85714286 404.536007,6.14285714 404.744681,6.33333333 C404.91162,6.57142857 405.120295,6.52380952 405.328969,6.42857143 C405.328969,6.38095238 405.370704,6.38095238 405.370704,6.33333333 C405.328969,6.0952381 405.495908,5.76190476 405.07856,5.80952381 Z M407.290507,5.47619048 C407.207038,5.38095238 407.207038,5.38095238 407.165303,5.33333333 C407.081833,5.23809524 406.998363,5.0952381 406.873159,5.14285714 C406.706219,5.19047619 406.706219,5.33333333 406.747954,5.47619048 C406.747954,5.61904762 406.706219,5.71428571 406.62275,5.85714286 C406.414075,6.28571429 406.62275,6.66666667 407.081833,6.66666667 C407.123568,6.66666667 407.207038,6.66666667 407.248773,6.61904762 C407.248773,6.57142857 407.290507,6.57142857 407.290507,6.52380952 C407.290507,6.19047619 407.290507,5.85714286 407.290507,5.47619048 Z M415.428805,5.61904762 C415.178396,5.52380952 414.927987,5.61904762 414.719313,5.57142857 C414.594108,5.57142857 414.552373,5.61904762 414.552373,5.71428571 C414.552373,5.76190476 414.552373,5.85714286 414.594108,5.9047619 C414.802782,6.28571429 414.969722,6.28571429 415.220131,5.95238095 C415.261866,5.9047619 415.428805,5.85714286 415.428805,5.61904762 Z M417.139935,4.57142857 C417.265139,4.71428571 417.348609,4.80952381 417.432079,4.9047619 C417.682488,4.9047619 417.932897,4.85714286 418.225041,4.85714286 C418.266776,4.85714286 418.266776,4.76190476 418.266776,4.66666667 C418.266776,4.61904762 418.225041,4.52380952 418.225041,4.47619048 C418.225041,4.47619048 418.183306,4.42857143 418.141571,4.42857143 C417.891162,4.38095238 417.640753,4.52380952 417.473813,4.23809524 C417.473813,4.23809524 417.390344,4.28571429 417.348609,4.28571429 C417.306874,4.42857143 417.223404,4.52380952 417.139935,4.57142857 Z M418.308511,7.33333333 C418.350245,7 418.225041,6.76190476 417.974632,6.66666667 C417.807692,6.61904762 417.765957,6.52380952 417.724223,6.33333333 C417.682488,6.14285714 417.306874,6.14285714 417.181669,6.33333333 C417.265139,6.66666667 417.01473,6.61904762 416.847791,6.71428571 C416.806056,6.76190476 416.764321,6.9047619 416.806056,7 C416.847791,7.14285714 416.972995,7.28571429 417.056465,7.28571429 C417.515548,7.28571429 417.265139,7.52380952 417.181669,7.71428571 C417.139935,7.85714286 417.223404,8 417.390344,8 C417.557283,8 417.765957,8.0952381 417.849427,8 C417.974632,7.85714286 418.183306,7.85714286 418.308511,7.71428571 C418.308511,7.57142857 418.308511,7.47619048 418.308511,7.33333333 Z M440.094108,6 C440.135843,5.95238095 440.177578,5.80952381 440.219313,5.76190476 C440.177578,5.66666667 440.135843,5.61904762 440.094108,5.57142857 C440.052373,5.52380952 439.968903,5.57142857 439.927169,5.57142857 C439.718494,5.57142857 439.718494,5.57142857 439.801964,5.85714286 C439.843699,5.95238095 439.801964,6.0952381 439.760229,6.14285714 C439.718494,6.19047619 439.59329,6.19047619 439.50982,6.19047619 C439.468085,6.19047619 439.468085,6.14285714 439.42635,6.0952381 C439.342881,6 439.301146,5.95238095 439.217676,6.0952381 C439.217676,6.14285714 439.217676,6.14285714 439.217676,6.19047619 C439.217676,6.33333333 439.259411,6.38095238 439.384615,6.42857143 C439.551555,6.42857143 439.760229,6.42857143 439.885434,6.61904762 C439.927169,6.66666667 440.094108,6.66666667 440.135843,6.61904762 C440.261047,6.52380952 440.219313,6.38095238 440.135843,6.23809524 C440.094108,6.19047619 440.010638,6.14285714 440.094108,6 Z M446.103928,5.95238095 C446.103928,5.9047619 446.062193,5.80952381 446.020458,5.80952381 C445.811784,5.80952381 445.60311,5.80952381 445.3527,5.80952381 C445.144026,5.80952381 445.144026,5.9047619 445.227496,6.19047619 C445.310966,6.14285714 445.43617,6.04761905 445.51964,6 C445.686579,5.95238095 445.811784,6 445.978723,6 C446.062193,6 446.103928,5.95238095 446.103928,5.95238095 Z M449.359247,4.38095238 C449.317512,4.33333333 449.192308,4.28571429 449.108838,4.28571429 C449.025368,4.23809524 448.900164,4.28571429 448.858429,4.23809524 C448.733224,4.14285714 448.649755,3.95238095 448.60802,4.28571429 C448.566285,4.47619048 448.399345,4.61904762 448.274141,4.85714286 C448.399345,5 448.566285,4.9047619 448.691489,5.0952381 C448.774959,5.23809524 448.900164,5.19047619 449.025368,5.0952381 C449.108838,5 449.192308,4.9047619 449.275777,4.80952381 C449.317512,4.66666667 449.400982,4.52380952 449.359247,4.38095238 Z M451.905074,4.47619048 C451.863339,4.38095238 451.863339,4.28571429 451.821604,4.19047619 C451.779869,4.04761905 451.696399,4.0952381 451.61293,4.19047619 C451.52946,4.33333333 451.404255,4.33333333 451.279051,4.23809524 C451.195581,4.14285714 451.112111,4.0952381 450.945172,4.04761905 C450.819967,4.04761905 450.819967,3.80952381 450.653028,3.85714286 C450.611293,3.85714286 450.527823,3.9047619 450.486088,3.95238095 C450.486088,3.95238095 450.486088,4 450.486088,4.04761905 C450.611293,4.19047619 450.694763,4.28571429 450.819967,4.42857143 C450.611293,4.52380952 450.611293,4.57142857 450.444354,4.42857143 C450.319149,4.33333333 450.277414,4.38095238 450.277414,4.47619048 C450.277414,4.52380952 450.277414,4.66666667 450.277414,4.66666667 C450.402619,4.76190476 450.527823,4.80952381 450.653028,4.9047619 C450.861702,5 451.153846,5.04761905 451.36252,4.9047619 C451.52946,4.80952381 451.654664,4.80952381 451.779869,4.76190476 C452.030278,4.71428571 451.988543,4.66666667 451.905074,4.47619048 Z M459.250409,5.38095238 C459.250409,5.23809524 459.292144,5.0952381 459.166939,4.95238095 C458.833061,4.76190476 458.582651,5.19047619 458.290507,5.23809524 C458.415712,5.42857143 458.666121,5.38095238 458.791326,5.61904762 C458.874795,5.76190476 459,5.9047619 459.166939,5.76190476 C459.333879,5.66666667 459.250409,5.52380952 459.250409,5.38095238 Z M462.672668,5.95238095 C462.630933,5.85714286 462.547463,5.76190476 462.505728,5.66666667 C462.463993,5.52380952 462.463993,5.38095238 462.297054,5.38095238 C462.130115,5.38095238 462.130115,5.42857143 462.130115,5.76190476 C462.130115,5.85714286 462.171849,5.95238095 462.213584,6.04761905 C462.338789,6 462.505728,6.0952381 462.672668,5.95238095 Z M468.473813,4.9047619 C468.223404,4.9047619 467.972995,4.9047619 467.722586,4.9047619 C467.680851,4.9047619 467.680851,4.95238095 467.639116,5 C467.639116,5.23809524 467.639116,5.47619048 467.639116,5.71428571 C467.806056,5.80952381 467.93126,5.9047619 468.0982,6 C468.0982,6 468.139935,6 468.139935,5.95238095 C468.181669,5.76190476 468.181669,5.52380952 468.473813,5.57142857 C468.515548,5.57142857 468.557283,5.47619048 468.557283,5.42857143 C468.599018,5.23809524 468.640753,5.04761905 468.473813,4.9047619 Z M471.645663,4.85714286 C471.645663,4.80952381 471.603928,4.71428571 471.562193,4.71428571 C471.353519,4.71428571 471.144845,4.61904762 470.894435,4.80952381 C471.061375,5.14285714 471.270049,5.23809524 471.562193,5.14285714 C471.603928,5.14285714 471.603928,4.95238095 471.645663,4.85714286 Z M494.683306,4.71428571 C494.599836,4.66666667 494.516367,4.61904762 494.474632,4.57142857 C494.307692,4.42857143 494.182488,4.52380952 494.099018,4.66666667 C494.057283,4.71428571 494.015548,4.76190476 493.973813,4.80952381 C494.099018,5.14285714 494.432897,5.0952381 494.641571,5.38095238 C494.725041,5.28571429 494.766776,5.23809524 494.808511,5.19047619 C494.933715,4.9047619 494.933715,4.80952381 494.683306,4.71428571 Z M496.3527,3.9047619 C496.185761,3.80952381 496.227496,3.57142857 496.185761,3.47619048 C496.144026,3.47619048 496.102291,3.42857143 496.102291,3.42857143 C495.768412,3.38095238 495.434534,3.52380952 495.14239,3.23809524 C495.100655,3.19047619 494.850245,3.19047619 494.808511,3.28571429 C494.641571,3.47619048 494.599836,3.38095238 494.474632,3.28571429 C494.432897,3.23809524 494.265957,3.28571429 494.224223,3.33333333 C494.182488,3.38095238 494.182488,3.52380952 494.182488,3.61904762 C494.182488,3.71428571 494.265957,3.76190476 494.349427,3.85714286 C494.140753,4 493.890344,3.9047619 493.681669,3.95238095 C493.472995,3.95238095 493.222586,3.95238095 493.013912,3.95238095 C492.805237,3.95238095 492.554828,3.95238095 492.346154,3.95238095 C492.13748,3.95238095 491.928805,3.9047619 491.720131,4 C491.678396,4.38095238 491.678396,4.38095238 491.88707,4.38095238 C491.928805,4.38095238 491.97054,4.38095238 491.97054,4.38095238 C492.179214,4.38095238 492.346154,4.38095238 492.554828,4.38095238 C492.763502,4.38095238 492.930442,4.33333333 493.139116,4.38095238 C493.347791,4.42857143 493.43126,4.14285714 493.639935,4.14285714 C493.765139,4.14285714 493.890344,4.04761905 493.973813,4.23809524 C494.057283,4.38095238 494.182488,4.38095238 494.307692,4.38095238 C494.766776,4.38095238 495.267594,4.33333333 495.726678,4.38095238 C496.018822,4.42857143 496.144026,4.0952381 496.394435,4.14285714 C496.310966,4.04761905 496.3527,3.9047619 496.3527,3.9047619 Z M500.98527,1.38095238 C501.110475,1.71428571 501.486088,1.61904762 501.611293,1.9047619 C501.653028,1.85714286 501.694763,1.80952381 501.694763,1.76190476 C501.694763,1.71428571 501.694763,1.61904762 501.653028,1.57142857 C501.527823,1.42857143 501.319149,1.47619048 501.193944,1.28571429 C501.193944,1.23809524 501.06874,1.28571429 501.027005,1.28571429 C501.027005,1.28571429 500.98527,1.33333333 500.943535,1.33333333 C500.98527,1.33333333 500.98527,1.33333333 500.98527,1.38095238 Z M500.025368,2.47619048 C499.983633,2.61904762 500.067103,2.71428571 500.234043,2.76190476 C500.275777,2.76190476 500.275777,2.76190476 500.317512,2.76190476 C500.359247,2.76190476 500.400982,2.76190476 500.400982,2.76190476 C500.526187,2.76190476 500.567921,2.71428571 500.609656,2.61904762 C500.651391,2.47619048 500.567921,2.33333333 500.400982,2.33333333 C500.359247,2.33333333 500.275777,2.33333333 500.234043,2.33333333 C500.067103,2.28571429 500.025368,2.38095238 500.025368,2.47619048 Z M499.107201,1.28571429 C499.107201,1.33333333 499.148936,1.42857143 499.190671,1.42857143 C499.44108,1.42857143 499.691489,1.42857143 499.941899,1.42857143 C499.983633,1.42857143 499.983633,1.38095238 500.025368,1.33333333 C500.025368,1.23809524 500.025368,1.0952381 500.025368,0.952380952 C500.025368,0.857142857 499.941899,0.761904762 499.858429,0.761904762 C499.733224,0.761904762 499.691489,0.80952381 499.649755,0.952380952 C499.60802,1.04761905 499.60802,1.14285714 499.566285,1.23809524 C499.399345,1.23809524 499.274141,1.23809524 499.148936,1.23809524 C499.148936,1.23809524 499.065466,1.28571429 499.107201,1.28571429 Z M498.689853,2 C498.731588,2.04761905 498.731588,2.04761905 498.773322,2.0952381 C499.107201,2.0952381 499.44108,2.0952381 499.774959,2.0952381 C499.816694,2.04761905 499.816694,2.04761905 499.858429,2 C499.733224,1.95238095 499.649755,1.95238095 499.52455,1.85714286 C499.023732,1.61904762 499.023732,1.61904762 498.689853,2 Z M499.232406,2.33333333 C499.190671,2.33333333 499.107201,2.33333333 499.065466,2.33333333 C498.898527,2.33333333 498.773322,2.52380952 498.898527,2.66666667 C498.981997,2.76190476 499.065466,2.85714286 499.190671,3 C499.274141,2.9047619 499.35761,2.80952381 499.44108,2.71428571 C499.482815,2.52380952 499.399345,2.33333333 499.232406,2.33333333 Z M497.938625,1.76190476 C497.938625,1.80952381 498.06383,1.80952381 498.06383,1.80952381 C498.230769,1.57142857 498.606383,1.66666667 498.648118,1.28571429 C498.564648,1.19047619 498.522913,1.14285714 498.397709,1 C498.272504,1.14285714 498.189034,1.23809524 498.105565,1.33333333 C498.022095,1.42857143 497.98036,1.47619048 497.938625,1.57142857 C497.89689,1.61904762 497.89689,1.71428571 497.938625,1.76190476 Z M497.89689,4.9047619 C497.813421,4.76190476 497.729951,4.61904762 497.604746,4.52380952 C497.563011,4.47619048 497.437807,4.47619048 497.437807,4.52380952 C497.270867,4.76190476 497.062193,4.71428571 496.853519,4.76190476 C496.811784,4.76190476 496.770049,4.95238095 496.770049,5.04761905 C496.770049,5.0952381 496.811784,5.19047619 496.853519,5.19047619 C497.020458,5.19047619 497.145663,5.19047619 497.312602,5.19047619 C497.479542,5.19047619 497.646481,5.19047619 497.771686,5.19047619 C497.855155,5.14285714 497.938625,4.95238095 497.89689,4.9047619 Z M502.487725,4.61904762 C502.487725,4.57142857 502.44599,4.52380952 502.44599,4.52380952 C502.279051,4.61904762 502.112111,4.76190476 501.903437,4.71428571 C501.861702,4.71428571 501.861702,4.71428571 501.819967,4.76190476 C501.778232,4.76190476 501.778232,4.80952381 501.736498,4.85714286 C501.736498,4.9047619 501.694763,5 501.736498,5.04761905 C501.778232,5.0952381 501.819967,5.14285714 501.861702,5.19047619 C502.028642,5.0952381 502.153846,5.04761905 502.320786,4.95238095 C502.36252,4.9047619 502.44599,4.9047619 502.44599,4.85714286 C502.487725,4.76190476 502.487725,4.66666667 502.487725,4.61904762 Z M503.030278,3.28571429 C503.030278,3.19047619 502.988543,3 502.946809,3 C502.779869,3 502.654664,2.9047619 502.52946,2.76190476 C502.487725,2.71428571 502.320786,2.76190476 502.279051,2.80952381 C502.195581,2.9047619 502.070376,2.95238095 501.945172,2.95238095 C501.736498,2.95238095 501.569558,2.95238095 501.360884,2.95238095 C501.152209,2.95238095 500.943535,2.85714286 500.734861,3 C500.734861,3.04761905 500.693126,3.04761905 500.693126,3.0952381 C500.693126,3.23809524 500.651391,3.38095238 500.484452,3.38095238 C500.359247,3.38095238 500.359247,3.28571429 500.317512,3.19047619 C500.234043,2.9047619 500.108838,2.85714286 499.941899,3.04761905 C499.774959,3.19047619 499.733224,3.38095238 499.733224,3.61904762 C499.52455,3.66666667 499.399345,3.57142857 499.232406,3.42857143 C499.148936,3.38095238 498.981997,3.42857143 498.856792,3.42857143 C498.648118,3.42857143 498.439444,3.33333333 498.230769,3.52380952 C498.189034,4 498.189034,4 497.813421,4.42857143 C497.855155,4.47619048 497.89689,4.52380952 497.938625,4.52380952 C498.06383,4.57142857 498.1473,4.38095238 498.230769,4.33333333 C498.355974,4.28571429 498.439444,4.57142857 498.606383,4.52380952 C498.856792,4.42857143 499.065466,4.66666667 499.274141,4.71428571 C499.399345,4.76190476 499.482815,4.9047619 499.566285,4.95238095 C499.649755,5 499.774959,4.95238095 499.816694,4.85714286 C499.900164,4.76190476 499.858429,4.57142857 499.733224,4.52380952 C499.649755,4.47619048 499.566285,4.47619048 499.482815,4.42857143 C499.52455,4.23809524 499.649755,4.33333333 499.774959,4.28571429 C499.858429,4.28571429 499.941899,4.23809524 500.025368,4.23809524 C499.941899,4.0952381 499.900164,4 499.858429,3.85714286 C499.983633,3.9047619 500.234043,3.76190476 500.234043,4.04761905 C500.234043,4.33333333 500.484452,4.42857143 500.609656,4.61904762 C500.567921,4.71428571 500.484452,4.76190476 500.442717,4.85714286 C500.484452,4.9047619 500.526187,4.95238095 500.567921,5 C500.776596,5.23809524 501.06874,5.14285714 501.152209,4.9047619 C501.193944,4.80952381 501.193944,4.71428571 501.193944,4.61904762 C501.110475,4.28571429 501.402619,4.04761905 501.444354,3.76190476 C501.444354,3.66666667 501.694763,3.66666667 501.778232,3.80952381 C501.819967,3.9047619 501.819967,4 501.819967,4.14285714 C502.028642,4.14285714 502.195581,4.14285714 502.36252,4.14285714 C502.44599,4.14285714 502.52946,4.04761905 502.52946,3.95238095 C502.52946,3.80952381 502.487725,3.76190476 502.404255,3.71428571 C502.320786,3.66666667 502.237316,3.66666667 502.153846,3.61904762 C502.36252,3.38095238 502.61293,3.52380952 502.779869,3.47619048 C502.988543,3.38095238 503.030278,3.33333333 503.030278,3.28571429 Z"></path></g></g></g></g></svg>